# xmcd
#
# Track frame offsets:
#	150
#	17233
#	35593
#	53583
#	74892
#	96369
#	122517
#	148410
#	169730
#	191092
#	210050
#	231850
#	251437
#	253630
#	280358
#
# Disc length: 3794 seconds
#
# Revision: 1
# Processed by: cddbd v1.5PL3 Copyright (c) Steve Scherf et al.
# Submitted via: EasyCDDAExtractor 7.0.5.1
#
DISCID=e00ed00f
DTITLE=Popa Chubby - Booty and The Beast
DYEAR=1995
DGENRE=Blues
TTITLE0=Palace of The King
TTITLE1=Lookin' Back
TTITLE2=Healing in Her Hands
TTITLE3=Sweet Godness of Love and Beer
TTITLE4=Stoop Down Baby
TTITLE5=Trouble
TTITLE6=Same Old Blues
TTITLE7=Anything You Want Me to Do
TTITLE8=Low Down and Dirty
TTITLE9=Waitin' for The Light
TTITLE10=Angel on My Shoulder
TTITLE11=You Rub Me The Wrong Way
TTITLE12=Secret Chubby
TTITLE13=Sweat
TTITLE14=Chubby's Goodnight
EXTD=
EXTT0=
EXTT1=
EXTT2=
EXTT3=
EXTT4=
EXTT5=
EXTT6=
EXTT7=
EXTT8=
EXTT9=
EXTT10=
EXTT11=
EXTT12=
EXTT13=
EXTT14=
PLAYORDER=
